<svg xmlns="http://www.w3.org/2000/svg" xmlns:xlink="http://www.w3.org/1999/xlink" viewBox="0,0,256,256" width="48px" height="48px" fill-rule="nonzero"><g fill="#ffffff" fill-rule="nonzero" stroke="none" stroke-width="1" stroke-linecap="butt" stroke-linejoin="miter" stroke-miterlimit="10" stroke-dasharray="" stroke-dashoffset="0" font-family="none" font-weight="none" font-size="none" text-anchor="none" style="mix-blend-mode: normal"><g transform="scale(5.33333,5.33333)"><path d="M23.181,3l-16.181,0.04c-0.55228,0 -1,0.44772 -1,1v2c0,0.55228 0.44772,1 1,1h2.013c0.7975,-0.00212 1.56313,0.31285 2.12826,0.87554c0.56513,0.5627 0.88341,1.32696 0.88474,2.12446v27.967c-0.00132,0.7975 -0.3196,1.56176 -0.88474,2.12446c-0.56513,0.5627 -1.33077,0.87767 -2.12826,0.87554h-2.013c-0.55228,0 -1,0.44772 -1,1v2c0,0.55228 0.44772,1 1,1h33.43c0.98966,0.00423 1.83359,-0.71599 1.985,-1.694l1.569,-10.142c0.04617,-0.28855 -0.03618,-0.58286 -0.2254,-0.80554c-0.18922,-0.22268 -0.46638,-0.35146 -0.7586,-0.35246h-2.046c-0.4698,-0.0019 -0.87759,0.32349 -0.98,0.782l-1.135,5.08c-0.41542,1.83083 -2.04464,3.12897 -3.922,3.125h-12.847c-0.7975,0.00212 -1.56313,-0.31285 -2.12826,-0.87554c-0.56513,-0.5627 -0.88341,-1.32696 -0.88474,-2.12446v-11.981h8.035c1.06332,-0.00292 2.08418,0.41703 2.83766,1.16731c0.75348,0.75029 1.17775,1.76936 1.17934,2.83269v0c0,0.55228 0.44772,1 1,1h1c0.55228,0 1,-0.44772 1,-1v-12.991c0,-0.55228 -0.44772,-1 -1,-1h-1c-0.55228,0 -1,0.44772 -1,1v1c-0.00159,1.06333 -0.42586,2.0824 -1.17934,2.83269c-0.75348,0.75029 -1.77434,1.17024 -2.83766,1.16731h-8.035v-11.993c0.00132,-0.7975 0.3196,-1.56176 0.88474,-2.12446c0.56513,-0.5627 1.33077,-0.87767 2.12826,-0.87554h12.052c1.06333,-0.00266 2.08414,0.41734 2.83772,1.16755c0.75358,0.7502 1.17816,1.76912 1.18028,2.83245v3c0,0.55228 0.44772,1 1,1h1.085c0.52108,0.00184 0.95623,-0.39676 1,-0.916l0.837,-9.992c0.02297,-0.27911 -0.07216,-0.55507 -0.26224,-0.76074c-0.19008,-0.20567 -0.4577,-0.32221 -0.73776,-0.32126z"></path></g></g></svg>